<svg width="146" height="40" viewBox="0 0 146 40" fill="none" xmlns="http://www.w3.org/2000/svg">
<path d="M67.0352 12.7679C67.0352 13.023 67.0038 13.2796 66.9393 13.5346C66.8749 13.7897 66.77 14.0237 66.6231 14.2353C66.4762 14.4468 66.2844 14.6329 66.0491 14.7964C65.8138 14.9585 65.5291 15.0785 65.1948 15.158V15.2465C65.4901 15.296 65.7689 15.3786 66.0341 15.4971C66.2994 15.6156 66.5302 15.7777 66.7265 15.9832C66.9228 16.1903 67.0772 16.4408 67.1911 16.7349C67.3035 17.0305 67.3605 17.3786 67.3605 17.7822C67.3605 18.3133 67.2481 18.7724 67.0218 19.161C66.7955 19.5496 66.4942 19.8662 66.1151 20.1122C65.7374 20.3583 65.3073 20.5398 64.8262 20.6583C64.3451 20.7769 63.849 20.8354 63.338 20.8354H62.6965C62.4358 20.8354 62.1555 20.8279 61.8573 20.8129C61.5575 20.7979 61.2533 20.7754 60.9445 20.7469C60.6358 20.7169 60.3526 20.6734 60.0978 20.6148V10.4379C60.2836 10.4079 60.4979 10.3794 60.7392 10.3494C60.9805 10.3193 61.2368 10.2953 61.5125 10.2758C61.7868 10.2563 62.0701 10.2413 62.3593 10.2308C62.6486 10.2218 62.9363 10.2158 63.2211 10.2158C63.7021 10.2158 64.1712 10.2533 64.6283 10.3268C65.0854 10.4004 65.4916 10.5309 65.8513 10.7184C66.2095 10.906 66.4972 11.1655 66.713 11.5001C66.9288 11.8347 67.0368 12.2578 67.0368 12.7679H67.0352ZM62.689 14.7004C62.8269 14.7004 62.9858 14.6959 63.1671 14.6854C63.3485 14.6764 63.4983 14.6614 63.6167 14.6419C63.9899 14.5249 64.3121 14.3508 64.5819 14.1168C64.8516 13.8827 64.9865 13.5766 64.9865 13.197C64.9865 12.9435 64.9371 12.7349 64.8397 12.5699C64.7407 12.4048 64.6119 12.2728 64.4485 12.1753C64.2851 12.0778 64.1023 12.0103 63.8955 11.9712C63.6887 11.9322 63.4728 11.9127 63.2465 11.9127C62.9918 11.9127 62.755 11.9172 62.5392 11.9277C62.3233 11.9367 62.157 11.9517 62.0386 11.9712V14.7004H62.6875H62.689ZM63.3515 19.14C63.5972 19.14 63.8355 19.1115 64.0663 19.053C64.2971 18.9944 64.501 18.9044 64.6778 18.7829C64.8546 18.6614 64.997 18.5083 65.1049 18.3223C65.2128 18.1377 65.2668 17.9187 65.2668 17.6651C65.2668 17.344 65.2023 17.0905 65.075 16.9059C64.9476 16.7214 64.7797 16.5774 64.5744 16.4753C64.3676 16.3733 64.1368 16.3073 63.882 16.2788C63.6272 16.2503 63.3709 16.2353 63.1162 16.2353H62.0401V19.053C62.0896 19.0725 62.1675 19.0875 62.2754 19.0965C62.3833 19.1055 62.4987 19.113 62.6216 19.119C62.7445 19.1235 62.8719 19.1295 63.0053 19.134C63.1386 19.1385 63.2525 19.1415 63.3515 19.1415V19.14Z" fill="#674A38"/>
<path d="M68.7139 13.7416C69.1066 13.5646 69.5727 13.4251 70.1137 13.3215C70.6533 13.218 71.2183 13.167 71.8073 13.167C72.3183 13.167 72.7454 13.2285 73.0886 13.3515C73.4318 13.4746 73.7046 13.6486 73.9054 13.8752C74.1063 14.1017 74.2486 14.3718 74.3326 14.6869C74.4165 15.0019 74.4584 15.356 74.4584 15.7491C74.4584 16.1812 74.4435 16.6163 74.415 17.0544C74.385 17.4925 74.3685 17.9216 74.364 18.3447C74.3595 18.7678 74.3715 19.1774 74.4015 19.5765C74.4315 19.9756 74.5049 20.3507 74.6218 20.7048H73.0602L72.7499 19.6876H72.6765C72.4802 19.9921 72.2074 20.2547 71.8597 20.4768C71.5105 20.6973 71.0609 20.8083 70.5109 20.8083C70.1677 20.8083 69.8574 20.7573 69.5832 20.6538C69.3074 20.5503 69.0721 20.4032 68.8758 20.2112C68.6795 20.0192 68.5266 19.7941 68.4187 19.533C68.3108 19.272 68.2568 18.9794 68.2568 18.6553C68.2568 18.2037 68.3573 17.8226 68.5596 17.512C68.7604 17.203 69.0511 16.9509 69.4288 16.7604C69.8065 16.5683 70.2591 16.4363 70.7836 16.3628C71.3082 16.2892 71.8957 16.2667 72.5446 16.2968C72.6136 15.7461 72.5746 15.35 72.4262 15.11C72.2793 14.8684 71.9496 14.7484 71.4386 14.7484C71.0564 14.7484 70.6503 14.7874 70.2231 14.8669C69.796 14.9464 69.4453 15.0484 69.1695 15.176L68.7124 13.7446L68.7139 13.7416ZM71.1448 19.227C71.5285 19.227 71.8327 19.1414 72.0575 18.9689C72.2838 18.7964 72.4502 18.6133 72.5581 18.4153V17.4565C72.2539 17.4265 71.9616 17.422 71.6814 17.4415C71.4011 17.461 71.1538 17.506 70.938 17.5736C70.7222 17.6426 70.5498 17.7416 70.4225 17.8691C70.2951 17.9967 70.2306 18.1587 70.2306 18.3552C70.2306 18.6313 70.3116 18.8444 70.4734 18.9974C70.6353 19.1504 70.8586 19.2255 71.1433 19.2255L71.1448 19.227Z" fill="#674A38"/>
<path d="M80.5733 20.6888V16.4997C80.5733 15.8996 80.4878 15.4675 80.3155 15.2019C80.1431 14.9364 79.8509 14.8043 79.4388 14.8043C79.0761 14.8043 78.7688 14.9094 78.5186 15.1209C78.2683 15.3325 78.0884 15.595 77.9805 15.9101V20.6888H76.0652V13.3145H77.5834L77.8037 14.2882H77.8621C78.0884 13.9731 78.3882 13.6986 78.7613 13.4615C79.1345 13.226 79.6156 13.1074 80.2046 13.1074C80.5673 13.1074 80.8925 13.1569 81.1772 13.2545C81.462 13.3535 81.7033 13.5155 81.8996 13.7406C82.0959 13.9671 82.2428 14.2747 82.3417 14.6618C82.4391 15.0504 82.4886 15.529 82.4886 16.0991V20.6858H80.5733V20.6888Z" fill="#674A38"/>
<path d="M89.3107 20.2307C89.0155 20.4467 88.6603 20.6118 88.2422 20.7243C87.824 20.8368 87.3954 20.8939 86.9533 20.8939C86.3643 20.8939 85.8652 20.8008 85.4576 20.6133C85.0499 20.4272 84.7187 20.1632 84.464 19.8241C84.2077 19.485 84.0248 19.0739 83.9109 18.5923C83.7985 18.1107 83.7416 17.5796 83.7416 16.9989C83.7416 15.7506 84.0218 14.7889 84.5808 14.1152C85.1414 13.4416 85.9552 13.1055 87.0267 13.1055C87.5663 13.1055 88.0009 13.149 88.3306 13.2375C88.6603 13.326 88.957 13.4386 89.2223 13.5766L88.7652 15.14C88.5389 15.0319 88.3156 14.9479 88.0953 14.8894C87.875 14.8309 87.6217 14.8009 87.337 14.8009C86.8064 14.8009 86.4033 14.9749 86.129 15.3245C85.8547 15.6741 85.7169 16.2322 85.7169 16.9989C85.7169 17.314 85.7513 17.6036 85.8203 17.8691C85.8892 18.1347 85.9926 18.3657 86.129 18.5623C86.2669 18.7588 86.4452 18.9134 86.667 19.0274C86.8873 19.1399 87.1451 19.1969 87.4404 19.1969C87.7641 19.1969 88.0398 19.1549 88.2661 19.0709C88.4924 18.9869 88.6933 18.8864 88.8701 18.7678L89.3122 20.2277L89.3107 20.2307Z" fill="#674A38"/>
<path d="M89.8699 17.0009C89.8699 15.7526 90.1741 14.7908 90.7826 14.1172C91.3911 13.4435 92.2453 13.1074 93.3454 13.1074C93.9344 13.1074 94.4454 13.2004 94.8771 13.388C95.3087 13.5755 95.6669 13.8381 95.9531 14.1772C96.2379 14.5163 96.4507 14.9274 96.5946 15.409C96.7369 15.8906 96.8089 16.4217 96.8089 17.0024C96.8089 18.2507 96.5061 19.2124 95.9022 19.8861C95.2982 20.5597 94.4454 20.8958 93.3454 20.8958C92.7564 20.8958 92.2453 20.8028 91.8137 20.6152C91.3821 20.4292 91.0209 20.1651 90.7317 19.826C90.4424 19.487 90.2251 19.0759 90.0827 18.5943C89.9403 18.1126 89.8684 17.5815 89.8684 17.0009H89.8699ZM91.8437 17.0009C91.8437 17.3249 91.8737 17.625 91.9321 17.9011C91.9906 18.1772 92.079 18.4172 92.1974 18.6243C92.3158 18.8313 92.4701 18.9903 92.662 19.1029C92.8538 19.2154 93.0816 19.2724 93.3469 19.2724C93.8475 19.2724 94.2206 19.0909 94.4664 18.7263C94.7122 18.3632 94.8351 17.7871 94.8351 17.0009C94.8351 16.3227 94.7227 15.7751 94.4964 15.3565C94.2701 14.9394 93.8879 14.7293 93.3469 14.7293C92.8748 14.7293 92.5076 14.9064 92.2423 15.2604C91.9771 15.6145 91.8452 16.1952 91.8452 17.0009H91.8437Z" fill="#674A38"/>
<path d="M106.399 18.402H103.233L102.452 20.6885H100.433L104.145 10.291H105.634L109.346 20.6885H107.225L106.399 18.402ZM103.748 16.7801H105.959L105.193 14.4785L104.883 12.8566H104.809L104.499 14.4935L103.748 16.7801Z" fill="#674A38"/>
<path d="M116.138 20.688C116.138 21.7593 115.847 22.5485 115.269 23.0556C114.689 23.5627 113.879 23.8148 112.838 23.8148C112.13 23.8148 111.573 23.7653 111.165 23.6678C110.758 23.5687 110.45 23.4667 110.245 23.3587L110.642 21.8388C110.868 21.9273 111.131 22.0159 111.431 22.1044C111.73 22.1929 112.1 22.2364 112.543 22.2364C113.211 22.2364 113.665 22.0909 113.905 21.8013C114.146 21.5117 114.266 21.1051 114.266 20.5845V20.1119H114.208C113.864 20.574 113.254 20.8051 112.381 20.8051C111.428 20.8051 110.719 20.5095 110.251 19.9199C109.783 19.3302 109.551 18.406 109.551 17.1472C109.551 15.8884 109.866 14.8321 110.494 14.154C111.122 13.4758 112.036 13.1367 113.233 13.1367C113.861 13.1367 114.425 13.1802 114.921 13.2688C115.417 13.3573 115.822 13.4608 116.136 13.5778V20.6865L116.138 20.688ZM112.896 19.2717C113.269 19.2717 113.557 19.1877 113.758 19.0211C113.959 18.8546 114.115 18.604 114.223 18.2695V14.9507C113.918 14.8231 113.541 14.7586 113.088 14.7586C112.596 14.7586 112.214 14.9432 111.939 15.3122C111.664 15.6813 111.526 16.268 111.526 17.0752C111.526 17.7923 111.645 18.3385 111.88 18.7121C112.115 19.0857 112.454 19.2732 112.896 19.2732V19.2717Z" fill="#674A38"/>
<path d="M121.869 15.1133C121.565 15.0053 121.289 14.9513 121.043 14.9513C120.7 14.9513 120.412 15.0428 120.182 15.2243C119.951 15.4059 119.796 15.6399 119.717 15.925V20.6887H117.802V13.3144H119.29L119.51 14.2881H119.569C119.735 13.925 119.961 13.6445 120.246 13.4479C120.531 13.2514 120.865 13.1523 121.247 13.1523C121.502 13.1523 121.793 13.2064 122.116 13.3144L121.866 15.1133H121.869Z" fill="#674A38"/>
<path d="M122.93 13.7416C123.323 13.5646 123.789 13.4251 124.33 13.3215C124.87 13.218 125.435 13.167 126.024 13.167C126.535 13.167 126.962 13.2285 127.305 13.3515C127.648 13.4746 127.921 13.6486 128.122 13.8752C128.323 14.1017 128.465 14.3718 128.549 14.6869C128.633 15.0019 128.675 15.356 128.675 15.7491C128.675 16.1812 128.66 16.6163 128.63 17.0544C128.6 17.4925 128.583 17.9216 128.579 18.3447C128.574 18.7678 128.586 19.1774 128.616 19.5765C128.646 19.9756 128.72 20.3507 128.837 20.7048H127.275L126.966 19.6876H126.893C126.696 19.9921 126.424 20.2547 126.076 20.4768C125.727 20.6973 125.279 20.8083 124.727 20.8083C124.384 20.8083 124.074 20.7573 123.799 20.6538C123.524 20.5503 123.288 20.4032 123.092 20.2112C122.896 20.0192 122.743 19.7941 122.635 19.533C122.527 19.272 122.473 18.9794 122.473 18.6553C122.473 18.2037 122.574 17.8226 122.776 17.512C122.978 17.2015 123.267 16.9509 123.645 16.7604C124.023 16.5683 124.475 16.4363 125 16.3628C125.524 16.2892 126.112 16.2667 126.761 16.2968C126.83 15.7461 126.791 15.35 126.643 15.11C126.496 14.8684 126.166 14.7484 125.655 14.7484C125.273 14.7484 124.867 14.7874 124.439 14.8669C124.012 14.9464 123.662 15.0484 123.386 15.176L122.929 13.7446L122.93 13.7416ZM125.36 19.227C125.743 19.227 126.048 19.1414 126.272 18.9689C126.499 18.7964 126.665 18.6133 126.773 18.4153V17.4565C126.469 17.4265 126.176 17.422 125.896 17.4415C125.616 17.461 125.369 17.506 125.153 17.5736C124.937 17.6426 124.765 17.7416 124.637 17.8691C124.51 17.9967 124.445 18.1587 124.445 18.3552C124.445 18.6313 124.526 18.8444 124.688 18.9974C124.85 19.1504 125.073 19.2255 125.358 19.2255L125.36 19.227Z" fill="#674A38"/>
<path d="M134.347 15.1133C134.043 15.0053 133.767 14.9513 133.523 14.9513C133.178 14.9513 132.892 15.0428 132.661 15.2243C132.431 15.4059 132.276 15.6399 132.197 15.925V20.6887H130.281V13.3144H131.77L131.99 14.2881H132.048C132.215 13.925 132.441 13.6445 132.726 13.4479C133.011 13.2514 133.345 13.1523 133.728 13.1523C133.983 13.1523 134.274 13.2064 134.598 13.3144L134.347 15.1133Z" fill="#674A38"/>
<path d="M135.349 11.2344C135.349 10.9493 135.454 10.7063 135.665 10.5037C135.876 10.3027 136.169 10.2021 136.542 10.2021C136.915 10.2021 137.218 10.3027 137.448 10.5037C137.679 10.7048 137.795 10.9493 137.795 11.2344C137.795 11.5195 137.679 11.758 137.448 11.9501C137.218 12.1421 136.915 12.2381 136.542 12.2381C136.169 12.2381 135.876 12.1421 135.665 11.9501C135.454 11.758 135.349 11.5195 135.349 11.2344ZM135.629 13.3139H137.544V20.6882H135.629V13.3139Z" fill="#674A38"/>
<path d="M139.061 16.9999C139.061 15.7516 139.365 14.7899 139.974 14.1162C140.582 13.4425 141.436 13.1064 142.537 13.1064C143.126 13.1064 143.637 13.1995 144.068 13.387C144.5 13.5746 144.858 13.8371 145.144 14.1762C145.429 14.5153 145.642 14.9264 145.786 15.408C145.928 15.8896 146 16.4207 146 17.0014C146 18.2497 145.697 19.2114 145.093 19.8851C144.489 20.5588 143.637 20.8948 142.538 20.8948C141.949 20.8948 141.438 20.8018 141.006 20.6143C140.575 20.4282 140.214 20.1642 139.924 19.8251C139.634 19.486 139.418 19.0749 139.275 18.5933C139.133 18.1117 139.061 17.5805 139.061 16.9999ZM141.036 16.9999C141.036 17.324 141.066 17.624 141.125 17.9001C141.183 18.1762 141.272 18.4162 141.39 18.6233C141.508 18.8303 141.663 18.9894 141.855 19.1019C142.046 19.2144 142.274 19.2714 142.54 19.2714C143.04 19.2714 143.413 19.0899 143.659 18.7253C143.905 18.3622 144.028 17.7861 144.028 16.9999C144.028 16.3217 143.915 15.7741 143.689 15.3555C143.463 14.9384 143.081 14.7283 142.54 14.7283C142.067 14.7283 141.7 14.9054 141.435 15.2595C141.17 15.6136 141.038 16.1942 141.038 16.9999H141.036Z" fill="#674A38"/>
<path d="M66.7115 31.911C66.7115 32.3236 66.716 32.7362 66.7265 33.1503C66.737 33.5629 66.7805 34.0205 66.8584 34.5216H65.4886L65.2233 33.5629H65.1649C64.9685 33.9065 64.6868 34.1855 64.3181 34.3956C63.9494 34.6071 63.5148 34.7122 63.0142 34.7122C62.091 34.7122 61.3732 34.4076 60.8636 33.7984C60.3526 33.1893 60.0978 32.2351 60.0978 30.9373C60.0978 29.6394 60.3825 28.7002 60.952 28.0025C61.5215 27.3049 62.3563 26.9553 63.4564 26.9553C63.7606 26.9553 64.0109 26.9718 64.2072 27.0063C64.4035 27.0408 64.5999 27.0978 64.7962 27.1758V24.1826H66.7115V31.911ZM63.4549 33.0903C63.828 33.0903 64.1233 32.9987 64.3391 32.8172C64.5549 32.6357 64.7078 32.3731 64.7962 32.028V28.9013C64.6583 28.7932 64.5069 28.7122 64.3391 28.6582C64.1712 28.6042 63.9554 28.5772 63.6902 28.5772C63.1491 28.5772 62.7445 28.7587 62.4747 29.1233C62.2049 29.4864 62.0701 30.1121 62.0701 30.9958C62.0701 31.6244 62.181 32.1315 62.4013 32.5141C62.6216 32.8982 62.9738 33.0888 63.4549 33.0888V33.0903Z" fill="#674A38"/>
<path d="M74.283 33.8715C73.9878 34.107 73.5876 34.3066 73.0826 34.4686C72.576 34.6307 72.0395 34.7117 71.47 34.7117C70.2815 34.7117 69.4123 34.3651 68.8622 33.6719C68.3122 32.9788 68.038 32.0275 68.038 30.8182C68.038 29.5204 68.3482 28.5467 68.9657 27.8985C69.5846 27.2489 70.4539 26.9248 71.5734 26.9248C71.9466 26.9248 72.3108 26.9743 72.6629 27.0718C73.0166 27.1709 73.3314 27.3329 73.6056 27.558C73.8799 27.7845 74.1017 28.0891 74.2681 28.4717C74.4344 28.8543 74.5183 29.3329 74.5183 29.903C74.5183 30.1101 74.5063 30.3306 74.4809 30.5662C74.4569 30.8017 74.4194 31.0478 74.37 31.3029H69.9503C69.9803 31.9225 70.1391 32.3891 70.4284 32.7042C70.7176 33.0193 71.1867 33.1768 71.8357 33.1768C72.2388 33.1768 72.6 33.1153 72.9192 32.9923C73.2384 32.8692 73.4812 32.7447 73.6476 32.6157L74.2815 33.87L74.283 33.8715ZM71.5434 28.4582C71.0429 28.4582 70.6712 28.6082 70.4314 28.9083C70.1901 29.2084 70.0462 29.609 69.9968 30.1101H72.7364C72.7753 29.5789 72.6944 29.1708 72.4936 28.8858C72.2928 28.6007 71.975 28.4582 71.5434 28.4582Z" fill="#674A38"/>
<path d="M86.4377 34.0831C86.1229 34.3081 85.7228 34.4687 85.2372 34.5662C84.7516 34.6637 84.2526 34.7117 83.7415 34.7117C83.1225 34.7117 82.535 34.6157 81.9805 34.4237C81.426 34.2316 80.9374 33.9225 80.5148 33.4949C80.0922 33.0673 79.7565 32.5122 79.5062 31.828C79.2559 31.1454 79.13 30.3157 79.13 29.3434C79.13 28.3712 79.2694 27.483 79.5496 26.7988C79.8299 26.1161 80.1926 25.5655 80.6392 25.1469C81.0858 24.7298 81.5849 24.4297 82.1349 24.2467C82.6849 24.0652 83.2349 23.9736 83.785 23.9736C84.3739 23.9736 84.873 24.0126 85.2807 24.0922C85.6883 24.1717 86.024 24.2647 86.2893 24.3727L85.8921 26.0831C85.6658 25.9751 85.3991 25.8971 85.0888 25.8476C84.7801 25.7981 84.4039 25.7741 83.9618 25.7741C83.1465 25.7741 82.4916 26.0651 81.9955 26.6458C81.4994 27.2279 81.2522 28.1281 81.2522 29.3509C81.2522 29.8836 81.3106 30.3682 81.429 30.8063C81.5474 31.2444 81.7257 31.6195 81.967 31.9301C82.2083 32.2406 82.5066 32.4822 82.8663 32.6547C83.2244 32.8273 83.6396 32.9128 84.1117 32.9128C84.5538 32.9128 84.927 32.8693 85.2312 32.7808C85.5354 32.6922 85.8007 32.5797 86.027 32.4417L86.4392 34.0846L86.4377 34.0831Z" fill="#674A38"/>
<path d="M86.7615 30.8182C86.7615 29.5699 87.0657 28.6082 87.6742 27.9345C88.2826 27.2609 89.1384 26.9248 90.2384 26.9248C90.8274 26.9248 91.3385 27.0178 91.7701 27.2054C92.2017 27.3929 92.5614 27.6555 92.8462 27.9946C93.1309 28.3336 93.3453 28.7447 93.4876 29.2264C93.63 29.708 93.7019 30.2391 93.7019 30.8197C93.7019 32.068 93.4007 33.0298 92.7952 33.7034C92.1912 34.3771 91.3385 34.7132 90.2399 34.7132C89.651 34.7132 89.1399 34.6202 88.7083 34.4326C88.2767 34.2466 87.9155 33.9825 87.6247 33.6434C87.3355 33.3043 87.1182 32.8932 86.9773 32.4116C86.8349 31.93 86.763 31.3989 86.763 30.8182H86.7615ZM88.7353 30.8182C88.7353 31.1423 88.7652 31.4424 88.8237 31.7185C88.8821 31.9945 88.9705 32.2346 89.0889 32.4416C89.2073 32.6487 89.3617 32.8077 89.5535 32.9203C89.7454 33.0328 89.9732 33.0898 90.2384 33.0898C90.739 33.0898 91.1122 32.9083 91.358 32.5437C91.6038 32.1806 91.7267 31.6044 91.7267 30.8182C91.7267 30.1401 91.6143 29.5909 91.388 29.1738C91.1616 28.7567 90.7795 28.5467 90.2384 28.5467C89.7664 28.5467 89.3992 28.7237 89.1339 29.0778C88.8686 29.4319 88.7368 30.0126 88.7368 30.8182H88.7353Z" fill="#674A38"/>
<path d="M97.0008 32.028C97.0008 32.3731 97.0443 32.6237 97.1327 32.7797C97.2211 32.9372 97.3635 33.0153 97.5598 33.0153C97.6782 33.0153 97.7936 33.0048 97.906 32.9852C98.0184 32.9657 98.1593 32.9207 98.3257 32.8532L98.5325 34.3581C98.3751 34.4376 98.1353 34.5156 97.8101 34.5936C97.4864 34.6717 97.1522 34.7122 96.8075 34.7122C96.247 34.7122 95.8198 34.5816 95.5261 34.3221C95.2309 34.061 95.084 33.6319 95.084 33.0318V24.1826H96.9993V32.0295L97.0008 32.028Z" fill="#674A38"/>
<path d="M99.0046 30.8182C99.0046 29.5699 99.3089 28.6082 99.9173 27.9345C100.526 27.2609 101.382 26.9248 102.482 26.9248C103.071 26.9248 103.582 27.0178 104.013 27.2054C104.445 27.3929 104.805 27.6555 105.089 27.9946C105.374 28.3336 105.588 28.7447 105.731 29.2264C105.873 29.708 105.945 30.2391 105.945 30.8197C105.945 32.068 105.644 33.0298 105.038 33.7034C104.434 34.3771 103.582 34.7132 102.483 34.7132C101.894 34.7132 101.383 34.6202 100.951 34.4326C100.52 34.2466 100.159 33.9825 99.8679 33.6434C99.5786 33.3043 99.3613 32.8932 99.2205 32.4116C99.0781 31.93 99.0061 31.3989 99.0061 30.8182H99.0046ZM100.978 30.8182C100.978 31.1423 101.008 31.4424 101.067 31.7185C101.125 31.9945 101.214 32.2346 101.332 32.4416C101.451 32.6487 101.605 32.8077 101.797 32.9203C101.989 33.0328 102.216 33.0898 102.482 33.0898C102.982 33.0898 103.355 32.9083 103.601 32.5437C103.847 32.1806 103.97 31.6044 103.97 30.8182C103.97 30.1401 103.857 29.5909 103.631 29.1738C103.405 28.7567 103.023 28.5467 102.482 28.5467C102.01 28.5467 101.642 28.7237 101.377 29.0778C101.112 29.4319 100.98 30.0126 100.98 30.8182H100.978Z" fill="#674A38"/>
<path d="M111.453 34.5066V30.4946C111.453 29.8165 111.389 29.3348 111.261 29.0498C111.134 28.7647 110.869 28.6222 110.465 28.6222C110.131 28.6222 109.861 28.7137 109.655 28.8952C109.448 29.0768 109.292 29.3108 109.182 29.5959V34.5066H107.267V27.1323H108.755L108.976 28.106H109.034C109.26 27.791 109.547 27.5164 109.896 27.2808C110.245 27.0453 110.693 26.9268 111.245 26.9268C111.717 26.9268 112.102 27.0228 112.402 27.2148C112.701 27.4069 112.934 27.7295 113.102 28.1811C113.328 27.797 113.617 27.4924 113.971 27.2673C114.325 27.0408 114.752 26.9283 115.252 26.9283C115.664 26.9283 116.017 26.9778 116.306 27.0753C116.595 27.1743 116.83 27.3439 117.013 27.5839C117.195 27.8255 117.33 28.1466 117.418 28.5502C117.506 28.9537 117.551 29.4639 117.551 30.0835V34.5081H115.636V30.3641C115.636 29.7835 115.575 29.3483 115.452 29.0588C115.329 28.7692 115.056 28.6237 114.633 28.6237C114.29 28.6237 114.017 28.7167 113.817 28.9042C113.616 29.0918 113.466 29.3468 113.367 29.6709V34.5081H111.452L111.453 34.5066Z" fill="#674A38"/>
<path d="M119.128 24.1822H121.043V27.7215H121.102C121.309 27.486 121.574 27.2984 121.898 27.1604C122.221 27.0224 122.579 26.9533 122.974 26.9533C123.858 26.9533 124.532 27.2549 125 27.8611C125.466 28.4657 125.7 29.3869 125.7 30.6262C125.7 31.954 125.373 32.9623 124.72 33.6495C124.066 34.3381 123.17 34.6817 122.031 34.6817C121.403 34.6817 120.827 34.6307 120.307 34.5272C119.786 34.4236 119.395 34.3081 119.129 34.1806V24.1807L119.128 24.1822ZM122.413 28.5767C122.059 28.5767 121.772 28.6683 121.551 28.8498C121.331 29.0313 121.162 29.2954 121.043 29.639V32.8543C121.201 32.9338 121.37 32.9863 121.551 33.0163C121.733 33.0463 121.927 33.0598 122.133 33.0598C122.653 33.0598 123.049 32.8708 123.318 32.4927C123.588 32.1146 123.723 31.5114 123.723 30.6862C123.723 29.2804 123.285 28.5767 122.412 28.5767H122.413Z" fill="#674A38"/>
<path d="M126.921 25.0523C126.921 24.7672 127.026 24.5242 127.237 24.3216C127.449 24.1206 127.741 24.0186 128.114 24.0186C128.487 24.0186 128.79 24.1191 129.021 24.3216C129.252 24.5227 129.367 24.7672 129.367 25.0523C129.367 25.3374 129.252 25.5759 129.021 25.768C128.79 25.96 128.487 26.056 128.114 26.056C127.741 26.056 127.449 25.96 127.237 25.768C127.026 25.5759 126.921 25.3374 126.921 25.0523ZM127.202 27.1318H129.117V34.5061H127.202V27.1318Z" fill="#674A38"/>
<path d="M130.944 27.559C131.337 27.382 131.803 27.2424 132.344 27.1389C132.883 27.0354 133.448 26.9844 134.037 26.9844C134.548 26.9844 134.975 27.0459 135.319 27.1689C135.662 27.2919 135.935 27.466 136.135 27.6925C136.336 27.9191 136.479 28.1892 136.563 28.5042C136.646 28.8193 136.688 29.1734 136.688 29.5665C136.688 29.9986 136.673 30.4337 136.643 30.8718C136.613 31.3099 136.597 31.739 136.593 32.1621C136.588 32.5852 136.6 32.9948 136.63 33.3939C136.66 33.7915 136.733 34.1681 136.85 34.5222H135.289L134.98 33.505H134.906C134.71 33.8095 134.437 34.0721 134.09 34.2941C133.74 34.5147 133.292 34.6257 132.741 34.6257C132.398 34.6257 132.087 34.5747 131.813 34.4712C131.537 34.3677 131.302 34.2206 131.106 34.0286C130.909 33.8365 130.757 33.61 130.649 33.3504C130.541 33.0894 130.487 32.7968 130.487 32.4727C130.487 32.0211 130.587 31.64 130.79 31.3294C130.99 31.0189 131.281 30.7683 131.659 30.5777C132.036 30.3857 132.489 30.2537 133.014 30.1801C133.538 30.1066 134.126 30.0841 134.775 30.1141C134.844 29.5635 134.805 29.1674 134.656 28.9273C134.509 28.6858 134.18 28.5658 133.669 28.5658C133.286 28.5658 132.88 28.6048 132.453 28.6843C132.026 28.7638 131.675 28.8658 131.4 28.9949L130.942 27.5635L130.944 27.559ZM133.375 33.0443C133.758 33.0443 134.063 32.9588 134.288 32.7863C134.514 32.6152 134.68 32.4292 134.788 32.2326V31.2739C134.484 31.2439 134.192 31.2394 133.911 31.2589C133.631 31.2784 133.384 31.3234 133.168 31.3909C132.952 31.46 132.78 31.559 132.652 31.6865C132.525 31.814 132.461 31.9761 132.461 32.1726C132.461 32.4487 132.542 32.6618 132.703 32.8148C132.865 32.9678 133.089 33.0428 133.373 33.0428L133.375 33.0443Z" fill="#674A38"/>
<path d="M54.9198 22.8172C54.7774 23.4803 54.4042 23.8179 54.1315 24.3085C50.3607 31.0737 38.3667 39.8343 38.3667 39.8343C38.3667 39.8343 38.0669 40.0593 37.6817 39.9843C37.1062 39.8133 36.6881 39.2806 36.6881 38.649C36.6881 38.6355 36.6881 38.6235 36.6896 38.61C36.6896 38.5725 36.6926 38.535 36.6971 38.4989C36.7346 38.1374 36.8635 37.8733 37.0928 37.5087C40.3959 30.8411 45.8706 25.4833 52.5009 22.124C52.8216 21.9604 53.1438 21.8029 53.469 21.6514C53.4945 21.6514 53.5215 21.6514 53.547 21.6514C54.2379 21.6514 54.8119 22.157 54.9198 22.8186V22.8172Z" fill="#4A8BC9"/>
<path d="M3.23962e-05 22.8172C0.14241 23.4803 0.515586 23.8179 0.788349 24.3085C4.55907 31.0737 16.5531 39.8343 16.5531 39.8343C16.5531 39.8343 16.8529 40.0593 17.2381 39.9843C17.8136 39.8133 18.2317 39.2806 18.2317 38.649C18.2317 38.6355 18.2317 38.6235 18.2302 38.61C18.2302 38.5725 18.2272 38.535 18.2227 38.4989C18.1852 38.1374 18.0563 37.8733 17.827 37.5087C14.5239 30.8411 9.04917 25.4833 2.41893 22.124C2.09821 21.9604 1.77599 21.8029 1.45078 21.6514C1.4253 21.6514 1.39832 21.6514 1.37284 21.6514C0.68194 21.6514 0.107939 22.157 3.23962e-05 22.8186V22.8172Z" fill="#4A8BC9"/>
<path d="M35.0606 7.58734C35.0606 11.7779 31.666 15.1747 27.4817 15.1747C23.2973 15.1747 19.9012 11.7779 19.9012 7.58734C19.9012 3.39682 23.2958 0 27.4817 0C31.6675 0 35.0606 3.39682 35.0606 7.58734Z" fill="#FBB800"/>
<path d="M50.3158 8.45138C49.9816 9.30209 49.7523 9.50763 49.463 10.0313C44.8545 18.4378 39.3903 26.3087 33.1857 33.5239C32.4348 34.3987 31.6735 35.2629 30.8972 36.1181C30.3951 36.6777 29.8856 37.2313 29.3715 37.7805C28.775 38.2591 28.171 38.2876 27.4831 38.2876C26.6753 38.2876 26.2272 38.2876 25.3115 37.5989H25.31C24.9459 37.2073 24.5847 36.8142 24.2265 36.4196C23.3572 35.4654 22.5045 34.5007 21.6652 33.5239C15.4291 26.2712 9.9394 18.3568 5.31591 9.90073C5.09261 9.49413 4.79587 9.22707 4.65499 8.67943V8.67493C4.64899 8.61342 4.646 8.5519 4.646 8.48889C4.646 7.48364 5.45979 6.66895 6.46392 6.66895C6.67074 6.66895 6.87006 6.70345 7.0559 6.76947C7.36913 7.01253 7.68086 7.25709 7.99259 7.50615C15.0724 13.1025 21.5843 19.3905 27.4262 26.2652C33.3446 19.3005 39.9493 12.9405 47.1356 7.28709C47.3079 7.15056 47.4833 7.01403 47.6571 6.876C47.6571 6.876 47.6581 6.8755 47.6601 6.87449C47.9119 6.74396 48.1966 6.66895 48.5009 6.66895C49.493 6.66895 50.4312 7.50165 50.3173 8.45138H50.3158Z" fill="#5EB031"/>
</svg>
