<svg width="24" height="24" viewBox="0 0 24 24" fill="none" xmlns="http://www.w3.org/2000/svg">
<path d="M2.5 3C2.5 2.86739 2.55268 2.74021 2.64645 2.64645C2.74021 2.55268 2.86739 2.5 3 2.5H8C8.13261 2.5 8.25979 2.55268 8.35355 2.64645C8.44732 2.74021 8.5 2.86739 8.5 3V21C8.5 21.1326 8.44732 21.2598 8.35355 21.3536C8.25979 21.4473 8.13261 21.5 8 21.5H3C2.86739 21.5 2.74021 21.4473 2.64645 21.3536C2.55268 21.2598 2.5 21.1326 2.5 21V3Z" stroke="white" stroke-width="2" stroke-linejoin="round"/>
<path d="M5.5 18.5C6.05228 18.5 6.5 18.0523 6.5 17.5C6.5 16.9477 6.05228 16.5 5.5 16.5C4.94772 16.5 4.5 16.9477 4.5 17.5C4.5 18.0523 4.94772 18.5 5.5 18.5Z" fill="white"/>
<path d="M5.5 5.50006V12.5001M11.989 4.87806L17.019 3.62056C17.1469 3.58867 17.2823 3.60861 17.3956 3.67603C17.5089 3.74345 17.591 3.8529 17.624 3.98056L21.374 18.5121C21.3905 18.5759 21.3942 18.6424 21.3849 18.7077C21.3755 18.773 21.3534 18.8358 21.3197 18.8925C21.286 18.9492 21.2414 18.9987 21.1885 19.0381C21.1356 19.0775 21.0755 19.106 21.0115 19.1221L15.9815 20.3796C15.8535 20.4116 15.718 20.3917 15.6046 20.3243C15.4912 20.2569 15.409 20.1473 15.376 20.0196L11.626 5.48806C11.6095 5.42416 11.6058 5.35764 11.6152 5.29232C11.6245 5.22699 11.6467 5.16417 11.6805 5.10746C11.7142 5.05076 11.7589 5.00129 11.8118 4.96192C11.8648 4.92255 11.925 4.89404 11.989 4.87806Z" stroke="white" stroke-width="2" stroke-linecap="round" stroke-linejoin="round"/>
<path d="M17.5 17C18.0523 17 18.5 16.5523 18.5 16C18.5 15.4477 18.0523 15 17.5 15C16.9477 15 16.5 15.4477 16.5 16C16.5 16.5523 16.9477 17 17.5 17Z" fill="white"/>
<path d="M15.5 8L16.75 13" stroke="white" stroke-width="2" stroke-linecap="round" stroke-linejoin="round"/>
</svg>
