<svg width="24" height="24" viewBox="0 0 24 24" fill="none" xmlns="http://www.w3.org/2000/svg">
<path d="M11.764 21.2161C12.4467 21.2161 12.9387 20.7138 12.9387 20.0409V4.01963C12.9387 3.34677 12.4467 2.78406 11.7434 2.78406C11.2514 2.78406 10.93 3.02534 10.3874 3.50749L5.66673 7.69591C5.60631 7.75591 5.51588 7.78634 5.41559 7.78634H2.43231C1.00602 7.78634 0.302734 8.49949 0.302734 10.0162V14.0143C0.302734 15.5315 1.00559 16.2442 2.43231 16.2442H5.41516C5.51588 16.2442 5.60631 16.2742 5.66673 16.3346L10.3874 20.5638C10.8799 21.0052 11.2716 21.2165 11.7636 21.2165M20.4422 19.1675C20.8334 19.4285 21.3156 19.3282 21.5972 18.9262C22.9227 17.0782 23.6963 14.6173 23.6963 12.0459C23.6963 9.4642 22.933 7.00334 21.5972 5.15491C21.3057 4.7632 20.8334 4.66291 20.4417 4.92391C20.0603 5.18534 19.9999 5.67734 20.3012 6.10934C21.3962 7.71649 22.0793 9.82591 22.0793 12.0459C22.0793 14.2659 21.4163 16.3951 20.3012 17.9821C20.0097 18.4141 20.0607 18.9061 20.4422 19.1675ZM11.1803 19.0972C11.1302 19.0972 11.0697 19.0672 11.0093 19.0068L6.56116 14.9983C6.31988 14.7772 6.11888 14.7271 5.84802 14.7271H2.50259C2.11088 14.7271 1.91973 14.5462 1.91973 14.1442V9.88549C1.91973 9.49377 2.11088 9.30306 2.50259 9.30306H5.84759C6.11845 9.30306 6.30959 9.26277 6.56073 9.03177L11.0102 4.99377C11.0607 4.95392 11.1207 4.91363 11.1812 4.91363C11.2712 4.91363 11.3217 4.97363 11.3217 5.0542V18.9459C11.3217 19.0363 11.2716 19.0968 11.1812 19.0968M16.4346 16.4551C16.7762 16.6959 17.2682 16.6153 17.5596 16.2236C18.343 15.1693 18.8153 13.6222 18.8153 12.0451C18.8153 10.4679 18.3332 8.93149 17.5596 7.85663C17.2682 7.46492 16.786 7.38434 16.4346 7.6252C15.9923 7.91663 15.9422 8.4292 16.2636 8.87106C16.8464 9.65449 17.1979 10.8498 17.1979 12.0451C17.1979 13.2408 16.8263 14.4361 16.2537 15.2293C15.9524 15.6613 16.0026 16.1533 16.4346 16.4551Z" fill="white"/>
</svg>
