<svg width="24" height="24" viewBox="0 0 24 24" fill="none" xmlns="http://www.w3.org/2000/svg">
<path fill-rule="evenodd" clip-rule="evenodd" d="M10.7987 3H13.2002C13.2797 3 13.356 3.03161 13.4123 3.08787C13.4686 3.14413 13.5002 3.22044 13.5002 3.3C13.5002 6.012 16.4372 7.7085 18.7862 6.351C18.8547 6.31223 18.9358 6.30199 19.0118 6.32248C19.0879 6.34296 19.1528 6.39254 19.1927 6.4605L20.3957 8.5425C20.4349 8.6112 20.4454 8.69263 20.4249 8.76904C20.4044 8.84545 20.3545 8.91067 20.2862 8.9505C17.9372 10.3065 17.9372 13.6965 20.2862 15.054C20.3541 15.0938 20.4037 15.1588 20.4242 15.2348C20.4447 15.3109 20.4344 15.3919 20.3957 15.4605L19.1927 17.5425C19.1528 17.6105 19.0879 17.66 19.0118 17.6805C18.9358 17.701 18.8547 17.6908 18.7862 17.652C16.4372 16.2945 13.5002 17.9895 13.5002 20.7C13.5002 20.7793 13.4688 20.8554 13.4128 20.9116C13.3569 20.9678 13.281 20.9996 13.2017 21H10.8002C10.7206 21 10.6443 20.9684 10.588 20.9121C10.5318 20.8559 10.5002 20.7796 10.5002 20.7C10.5002 17.988 7.56316 16.293 5.21416 17.649C5.14546 17.6882 5.06403 17.6987 4.98762 17.6782C4.91121 17.6577 4.84599 17.6079 4.80616 17.5395L3.60616 15.4575C3.56727 15.3891 3.55679 15.3082 3.57699 15.2322C3.59719 15.1561 3.64645 15.0911 3.71416 15.051C6.06316 13.6935 6.06316 10.3035 3.71416 8.946C3.6466 8.9062 3.59731 8.84152 3.57684 8.76582C3.55638 8.69013 3.56636 8.60943 3.60466 8.541L4.80616 6.4575C4.84623 6.38939 4.91156 6.33984 4.98796 6.31962C5.06435 6.2994 5.14564 6.31014 5.21416 6.3495C7.56316 7.707 10.5002 6.0105 10.5002 3.2985C10.5002 3.1335 10.6337 3 10.7987 3ZM8.25016 3.3C8.25016 1.89 9.39016 0.75 10.7987 0.75H13.2002C14.6102 0.75 15.7502 1.89 15.7502 3.3C15.7506 3.52345 15.8098 3.74285 15.9217 3.93623C16.0337 4.12961 16.1945 4.29018 16.388 4.40184C16.5816 4.5135 16.8011 4.57234 17.0245 4.57245C17.2479 4.57257 17.4675 4.51396 17.6612 4.4025C18.2465 4.06539 18.9417 3.97429 19.5941 4.14921C20.2466 4.32413 20.803 4.75078 21.1412 5.3355L22.3442 7.4175C23.0477 8.637 22.6292 10.194 21.4112 10.8975C21.2174 11.0094 21.0565 11.1704 20.9447 11.3642C20.8329 11.5579 20.774 11.7778 20.774 12.0015C20.774 12.2252 20.8329 12.4451 20.9447 12.6388C21.0565 12.8326 21.2174 12.9936 21.4112 13.1055C21.9959 13.4437 22.4225 14.0001 22.5974 14.6525C22.7724 15.305 22.6813 16.0002 22.3442 16.5855L21.1412 18.6675C20.803 19.2522 20.2466 19.6789 19.5941 19.8538C18.9417 20.0287 18.2465 19.9376 17.6612 19.6005C17.4675 19.489 17.2479 19.4304 17.0245 19.4305C16.8011 19.4307 16.5816 19.4895 16.388 19.6012C16.1945 19.7128 16.0337 19.8734 15.9217 20.0668C15.8098 20.2601 15.7506 20.4796 15.7502 20.703C15.7502 22.1115 14.6102 23.253 13.2017 23.253H10.8002C10.1241 23.2526 9.4759 22.9838 8.99801 22.5056C8.52011 22.0274 8.25166 21.379 8.25166 20.703C8.25121 20.4796 8.19205 20.2601 8.08011 20.0668C7.96816 19.8734 7.80735 19.7128 7.61381 19.6012C7.42026 19.4895 7.20077 19.4307 6.97732 19.4305C6.75388 19.4304 6.53432 19.489 6.34066 19.6005C5.75531 19.9376 5.06012 20.0287 4.40768 19.8538C3.75524 19.6789 3.19886 19.2522 2.86066 18.6675L1.65766 16.5855C1.32055 16.0002 1.22945 15.305 1.40437 14.6525C1.5793 14.0001 2.00594 13.4437 2.59066 13.1055C2.78405 12.9935 2.94459 12.8326 3.0562 12.6389C3.1678 12.4453 3.22655 12.2257 3.22655 12.0023C3.22655 11.7788 3.1678 11.5592 3.0562 11.3656C2.94459 11.1719 2.78405 11.011 2.59066 10.899C2.00594 10.5608 1.5793 10.0044 1.40437 9.35198C1.22945 8.69954 1.32055 8.00435 1.65766 7.419L2.85916 5.3355C3.19736 4.75078 3.75374 4.32413 4.40618 4.14921C5.05862 3.97429 5.75381 4.06539 6.33916 4.4025C6.53282 4.51396 6.75238 4.57257 6.97582 4.57245C7.19927 4.57234 7.41876 4.5135 7.61231 4.40184C7.80586 4.29018 7.96666 4.12961 8.07861 3.93623C8.19055 3.74285 8.24971 3.52345 8.25016 3.3ZM14.2502 12C14.2502 12.5967 14.0131 13.169 13.5912 13.591C13.1692 14.0129 12.5969 14.25 12.0002 14.25C11.4034 14.25 10.8311 14.0129 10.4092 13.591C9.98721 13.169 9.75016 12.5967 9.75016 12C9.75016 11.4033 9.98721 10.831 10.4092 10.409C10.8311 9.98705 11.4034 9.75 12.0002 9.75C12.5969 9.75 13.1692 9.98705 13.5912 10.409C14.0131 10.831 14.2502 11.4033 14.2502 12ZM16.5002 12C16.5002 13.1935 16.0261 14.3381 15.1821 15.182C14.3382 16.0259 13.1936 16.5 12.0002 16.5C10.8067 16.5 9.66209 16.0259 8.81818 15.182C7.97427 14.3381 7.50016 13.1935 7.50016 12C7.50016 10.8065 7.97427 9.66193 8.81818 8.81802C9.66209 7.97411 10.8067 7.5 12.0002 7.5C13.1936 7.5 14.3382 7.97411 15.1821 8.81802C16.0261 9.66193 16.5002 10.8065 16.5002 12Z" fill="white"/>
</svg>
