<svg width="24" height="24" viewBox="0 0 24 24" fill="none" xmlns="http://www.w3.org/2000/svg">
<path d="M13.5318 2.65805C14.2222 1.98388 15.1506 1.609 16.1156 1.61469C17.0806 1.62038 18.0044 2.00617 18.6869 2.68844C19.3694 3.3707 19.7554 4.29446 19.7614 5.25945C19.7674 6.22444 19.3928 7.1529 18.7188 7.84355L18.3108 8.25005L18.4398 8.37905C19.0022 8.94164 19.3181 9.70456 19.3181 10.5001C19.3181 11.2955 19.0022 12.0585 18.4398 12.6211L16.2798 14.7811C16.1383 14.9177 15.9489 14.9933 15.7522 14.9916C15.5556 14.9898 15.3675 14.911 15.2284 14.7719C15.0894 14.6329 15.0105 14.4448 15.0088 14.2481C15.0071 14.0515 15.0827 13.862 15.2193 13.7206L17.3793 11.5606C17.6605 11.2793 17.8185 10.8978 17.8185 10.5001C17.8185 10.1023 17.6605 9.72084 17.3793 9.43955L17.2503 9.31055L8.78128 17.7811C8.68477 17.8771 8.56395 17.945 8.43178 17.9776L2.43178 19.4776C2.30149 19.5099 2.1649 19.5067 2.03627 19.4683C1.90764 19.4298 1.79168 19.3576 1.7005 19.2591C1.60932 19.1605 1.54626 19.0393 1.5179 18.9081C1.48954 18.7769 1.49693 18.6404 1.53928 18.5131L3.41428 12.8881C3.45085 12.7779 3.51246 12.6778 3.59428 12.5956L13.5318 2.65805ZM17.6568 3.71855C17.2504 3.31277 16.6996 3.08486 16.1253 3.08486C15.551 3.08486 15.0002 3.31277 14.5938 3.71855L4.78078 13.5301L3.39328 17.6911L7.86628 16.5736L17.6583 6.78305C18.0645 6.3766 18.2927 5.82546 18.2927 5.2508C18.2927 4.67614 18.0645 4.12501 17.6583 3.71855M7.45078 22.5001C5.59828 22.5001 4.13878 21.6511 3.16828 20.8396L5.09428 20.3596C5.81099 20.7724 6.62221 20.993 7.44928 21.0001C8.05828 21.0001 8.68528 20.7541 9.35428 20.3146C10.0233 19.8751 10.6713 19.2841 11.3253 18.6721L11.4948 18.5116C12.0723 17.9701 12.6708 17.4061 13.2438 17.0176C13.8558 16.6006 14.6688 16.2226 15.5193 16.5511C16.0833 16.7671 16.4493 17.1661 16.7058 17.6551C16.9473 18.1141 17.1138 18.6871 17.2758 19.3126C17.3508 19.5976 17.4753 19.8736 17.6208 20.0596C17.6684 20.1244 17.7261 20.1811 17.7918 20.2276C17.8293 20.2501 17.8458 20.2501 17.8503 20.2501C18.0333 20.2501 18.3468 20.1271 18.7953 19.8211C19.0728 19.6321 19.3113 19.4431 19.5483 19.2526C19.6943 19.1356 19.8453 19.0181 20.0013 18.9001C20.4198 18.5866 20.7813 18.3766 21.0468 18.2431C21.1825 18.174 21.3217 18.112 21.4638 18.0571L21.4938 18.0451L21.5043 18.0421L21.5088 18.0406H21.5103L21.7503 18.7501L21.5118 18.0391C21.6994 17.978 21.9036 17.9934 22.08 18.0818C22.2563 18.1702 22.3908 18.3246 22.4541 18.5115C22.5175 18.6984 22.5046 18.9027 22.4184 19.0801C22.3321 19.2576 22.1794 19.3939 21.9933 19.4596L21.9873 19.4626L21.9408 19.4806C21.8948 19.4986 21.8228 19.5321 21.7248 19.5811C21.5298 19.6786 21.2433 19.8436 20.8998 20.1016C20.8113 20.1661 20.6973 20.2576 20.5653 20.3626C20.2938 20.5771 19.9518 20.8486 19.6383 21.0616C19.1733 21.3796 18.5268 21.7516 17.8503 21.7516C17.1963 21.7516 16.7238 21.3541 16.4313 20.9761C16.1452 20.5918 15.9386 20.1542 15.8238 19.6891C15.6588 19.0546 15.5298 18.6391 15.3798 18.3541C15.2448 18.1021 15.1248 18.0061 14.9808 17.9491C14.8578 17.9041 14.6133 17.8996 14.0883 18.2581C13.6188 18.5761 13.1058 19.0576 12.5013 19.6261L12.3513 19.7656C11.7048 20.3731 10.9713 21.0481 10.1778 21.5686C9.38278 22.0906 8.46778 22.5001 7.45078 22.5001Z" fill="white"/>
</svg>
