<svg width="24" height="24" viewBox="0 0 24 24" fill="none" xmlns="http://www.w3.org/2000/svg">
<path d="M5.24987 3C5.71484 3.00038 6.16829 3.1448 6.54783 3.41341C6.92737 3.68202 7.21438 4.06162 7.36937 4.5H17.2499C18.2444 4.5 19.1983 4.89509 19.9015 5.59835C20.6048 6.30161 20.9999 7.25544 20.9999 8.25C20.9999 9.24456 20.6048 10.1984 19.9015 10.9017C19.1983 11.6049 18.2444 12 17.2499 12H6.74987C6.15313 12 5.58083 12.2371 5.15888 12.659C4.73692 13.081 4.49987 13.6533 4.49987 14.25C4.49987 14.8467 4.73692 15.419 5.15888 15.841C5.58083 16.2629 6.15313 16.5 6.74987 16.5H16.6304C16.8073 15.9996 17.1554 15.5778 17.6132 15.3093C18.071 15.0407 18.609 14.9427 19.1322 15.0324C19.6553 15.1222 20.1298 15.394 20.4719 15.7998C20.8141 16.2056 21.0017 16.7192 21.0017 17.25C21.0017 17.7808 20.8141 18.2944 20.4719 18.7002C20.1298 19.106 19.6553 19.3778 19.1322 19.4676C18.609 19.5574 18.071 19.4593 17.6132 19.1907C17.1554 18.9222 16.8073 18.5004 16.6304 18H6.74987C5.75531 18 4.80148 17.6049 4.09822 16.9017C3.39496 16.1984 2.99987 15.2446 2.99987 14.25C2.99987 13.2554 3.39496 12.3016 4.09822 11.5984C4.80148 10.8951 5.75531 10.5 6.74987 10.5H17.2499C17.8466 10.5 18.4189 10.2629 18.8409 9.84099C19.2628 9.41903 19.4999 8.84674 19.4999 8.25C19.4999 7.65326 19.2628 7.08097 18.8409 6.65901C18.4189 6.23705 17.8466 6 17.2499 6H7.36937C7.23184 6.38898 6.99001 6.73266 6.67032 6.99345C6.35063 7.25425 5.96539 7.42213 5.55671 7.47873C5.14804 7.53533 4.73167 7.47847 4.35314 7.31437C3.9746 7.15027 3.64847 6.88526 3.4104 6.54829C3.17234 6.21133 3.03151 5.8154 3.00331 5.40379C2.97511 4.99218 3.06063 4.58074 3.25051 4.21446C3.44039 3.84818 3.72733 3.54116 4.07995 3.32697C4.43257 3.11278 4.83729 2.99967 5.24987 3Z" fill="white"/>
</svg>
