<svg width="24" height="24" viewBox="0 0 24 24" fill="none" xmlns="http://www.w3.org/2000/svg">
<path d="M6.66673 22.7679H17.3339C19.4133 22.7679 20.4479 21.7235 20.4479 19.6239V4.38603C20.4479 2.29675 19.4133 1.23218 17.3339 1.23218H6.66673C4.59759 1.23218 3.55273 2.29675 3.55273 4.38646V19.6239C3.55273 21.723 4.59759 22.7679 6.66673 22.7679ZM6.74688 21.1509C5.71231 21.1509 5.16973 20.598 5.16973 19.5939V4.41646C5.16973 3.42218 5.71231 2.84918 6.75716 2.84918H17.2537C18.2982 2.84918 18.8309 3.41189 18.8309 4.41646V19.5939C18.8309 20.598 18.2982 21.1509 17.2636 21.1509H6.74688ZM8.20359 7.04789H15.8172C16.1686 7.04789 16.4399 6.76675 16.4399 6.41532C16.4399 6.07375 16.169 5.81275 15.8172 5.81275H8.20359C7.83159 5.81275 7.57059 6.07375 7.57059 6.41532C7.57059 6.76675 7.83202 7.04789 8.20359 7.04789ZM8.20359 10.5536H15.8172C16.1686 10.5536 16.4399 10.2725 16.4399 9.92061C16.4399 9.57946 16.169 9.31804 15.8172 9.31804H8.20359C7.83159 9.31804 7.57059 9.57946 7.57059 9.92061C7.57059 10.272 7.83202 10.5536 8.20359 10.5536ZM8.20359 14.0593H11.8096C12.161 14.0593 12.4323 13.788 12.4323 13.4465C12.4323 13.095 12.161 12.8237 11.8096 12.8237H8.20316C7.83116 12.8237 7.57016 13.095 7.57016 13.4465C7.57016 13.788 7.83159 14.0593 8.20316 14.0593" fill="white"/>
</svg>
