<svg width="24" height="24" viewBox="0 0 24 24" fill="none" xmlns="http://www.w3.org/2000/svg">
<g clip-path="url(#clip0_10031_23865)">
<path d="M15.3595 12L12.8195 14.51C13.3904 15.8538 13.476 17.3544 13.0616 18.7545C12.6472 20.1545 11.7586 21.3668 10.5483 22.1834C9.33793 23.0001 7.88118 23.3702 6.42781 23.2304C4.97443 23.0905 3.61498 22.4494 2.58254 21.417C1.55011 20.3845 0.909003 19.0251 0.769161 17.5717C0.629318 16.1183 0.999446 14.6616 1.81608 13.4512C2.63272 12.2409 3.84499 11.3523 5.24504 10.9379C6.64508 10.5235 8.14568 10.6091 9.48954 11.18L19.1995 1.43999C19.4168 1.21525 19.6767 1.03602 19.964 0.912752C20.2512 0.789483 20.5602 0.724642 20.8728 0.722007C21.1854 0.719373 21.4953 0.779 21.7846 0.89741C22.074 1.01582 22.3368 1.19064 22.5578 1.41169C22.7789 1.63273 22.9537 1.89557 23.0721 2.18488C23.1905 2.47419 23.2502 2.78418 23.2475 3.09677C23.2449 3.40936 23.18 3.7183 23.0568 4.00557C22.9335 4.29284 22.7543 4.5527 22.5295 4.76999L22.9995 6.51999C23.0665 6.77868 23.0668 7.05014 23.0003 7.30898C22.9339 7.56781 22.8029 7.80556 22.6195 7.99999C22.4326 8.20579 22.194 8.35788 21.9285 8.44051C21.663 8.52315 21.3803 8.53332 21.1095 8.46999L19.3495 7.99999L18.5295 8.75999L18.9995 10.51C19.0696 10.7693 19.0724 11.0422 19.0077 11.3029C18.9429 11.5637 18.8128 11.8036 18.6295 12C18.4426 12.2058 18.204 12.3579 17.9385 12.4405C17.673 12.5231 17.3903 12.5333 17.1195 12.47L15.3595 12Z" stroke="white" stroke-width="2" stroke-linecap="round" stroke-linejoin="round"/>
<path d="M4.40439 18.567C4.30891 18.3365 4.25977 18.0895 4.25977 17.8399C4.25977 17.336 4.45994 16.8528 4.81626 16.4964C5.17258 16.1401 5.65585 15.9399 6.15977 15.9399C6.66368 15.9399 7.14695 16.1401 7.50327 16.4964C7.85959 16.8528 8.05977 17.336 8.05977 17.8399C8.05977 18.0895 8.01062 18.3365 7.91514 18.567C7.81965 18.7976 7.6797 19.007 7.50327 19.1834C7.32684 19.3599 7.11738 19.4998 6.88686 19.5953C6.65635 19.6908 6.40928 19.7399 6.15977 19.7399C5.91025 19.7399 5.66319 19.6908 5.43267 19.5953C5.20215 19.4998 4.99269 19.3599 4.81626 19.1834C4.63983 19.007 4.49988 18.7976 4.40439 18.567Z" stroke="white" stroke-width="2" stroke-linecap="round" stroke-linejoin="round"/>
</g>
<defs>
<clipPath id="clip0_10031_23865">
<rect width="24" height="24" fill="white"/>
</clipPath>
</defs>
</svg>
